# xmcd
#
# Track frame offsets:
#	151
#	14340
#	29953
#	41396
#	52825
#	68714
#	91573
#	101502
#	123180
#	146231
#	163314
#
# Disc length: 2420 seconds
# Revision: 0
# Processed by: cddbd v1.5.2PL0 Copyright (c) Steve Scherf et al.
# Submitted via: dBpowerAMP V12.0
#
DISCID=8e09720b
DTITLE=Julian Piper - Terlingua
DYEAR=1900
DGENRE=Blues
TTITLE0=The Blues Ain't Got Me Yet
TTITLE1=Flood Coming On
TTITLE2=East Texas Blues
TTITLE3=Terlingua
TTITLE4=Who Got The Olds? (When Johnny Ace Died)
TTITLE5=Skunk Hour
TTITLE6=Sinner Man
TTITLE7=Cherry Ball
TTITLE8=Backfiring Now
TTITLE9=I Know I've Been Converted
TTITLE10=Bryher Sunrise
EXTD=
EXTT0=
EXTT1=
EXTT2=
EXTT3=
EXTT4=
EXTT5=
EXTT6=
EXTT7=
EXTT8=
EXTT9=
EXTT10=
PLAYORDER=
